<?xml version="1.0" encoding="UTF-8"?>
<svg width="180px" height="48px" viewBox="0 0 180 48" version="1.1" xmlns="http://www.w3.org/2000/svg" xmlns:xlink="http://www.w3.org/1999/xlink">
    <!-- Generator: Sketch 57.1 (83088) - https://sketch.com -->
    <title>Branding/Logo/Line/Default</title>
    <desc>Created with Sketch.</desc>
    <defs>
        <linearGradient x1="37.5%" y1="42.0810697%" x2="62.5%" y2="0%" id="linearGradient-1">
            <stop stop-color="#3889FA" offset="0%"></stop>
            <stop stop-color="#066BF9" offset="100%"></stop>
        </linearGradient>
        <linearGradient x1="39.6694215%" y1="96.067427%" x2="60.3305785%" y2="50%" id="linearGradient-2">
            <stop stop-color="#066BF9" offset="0%"></stop>
            <stop stop-color="#3889FA" offset="100%"></stop>
        </linearGradient>
    </defs>
    <g id="Branding/Logo/Line/Default" stroke="none" stroke-width="1" fill="none" fill-rule="evenodd">
        <g id="Branding/Logo/Text/Line" transform="translate(52.000000, 16.000000)" fill="#000000">
            <path d="M8,0 C10.2532872,0 12.288993,0.931577341 13.7429848,2.43059975 L12.3072888,3.8230015 C11.2167915,2.69870442 9.68999133,2 8,2 C4.6862915,2 2,4.6862915 2,8 C2,11.3137085 4.6862915,14 8,14 C9.68999133,14 11.2167915,13.3012956 12.3072888,12.1769985 L13.7429848,13.5694003 C12.288993,15.0684227 10.2532872,16 8,16 C3.581722,16 0,12.418278 0,8 C0,3.581722 3.581722,0 8,0 Z M71,0 L82,11 L82,0.5 L84,0.5 L84,16 L73,5 L73,15.5 L71,15.5 L71,0 Z M18.5,6.5 L18.5,15.5 L16.5,15.5 L16.5,6.5 L18.5,6.5 Z M29.5,6.5 L29.5,15.5 L27.5,15.5 L27.5,6.5 L29.5,6.5 Z M40.5,5.5 L34.75,13.5 L40,13.5 L40,15.5 L31,15.5 L36.75,7.5 L32,7.5 L32,5.5 L40.5,5.5 Z M90.36,5.5 C93.16,5.5 95,7.42 95,10.32 C95,10.48 95,10.74 94.96,11 L87.64,11 C87.82,12.62 88.94,13.6 90.36,13.6 C91.5,13.6 92.58,13.18 93.2,12.18 L94.78,13.16 C93.86,14.56 92.54,15.5 90.36,15.5 C87.26,15.5 85.5,13.28 85.5,10.5 C85.5,7.72 87.46,5.5 90.36,5.5 Z M46.36,5.5 C49.16,5.5 51,7.42 51,10.32 C51,10.48 51,10.74 50.96,11 L43.64,11 C43.82,12.62 44.94,13.6 46.36,13.6 C47.5,13.6 48.58,13.18 49.2,12.18 L50.78,13.16 C49.86,14.56 48.54,15.5 46.36,15.5 C43.26,15.5 41.5,13.28 41.5,10.5 C41.5,7.72 43.46,5.5 46.36,5.5 Z M57.9642857,5.5 C60.2678571,5.5 62,6.94642857 62,9.69642857 L62,15.5 L60,15.5 L59.9821429,10 C59.9821429,8.19642857 59,7.26785714 57.5178571,7.26785714 C56.0178571,7.26785714 55.0357143,8.19642857 55.0357143,10 L55.0357143,15.5 L53,15.5 L53,5.66071429 L55.0357143,5.66071429 L55.0357143,6.78571429 C55.6964286,5.98214286 56.7857143,5.5 57.9642857,5.5 Z M97.984472,5.5 L100.5,9 L103,5.5 L105.5,5.5 L101.75,10.5 L105.437888,15.5 L103,15.5 L100.5,12 L98,15.5 L95.5,15.5 L99.25,10.5 L95.5,5.5 L97.984472,5.5 Z M23.5,2.5 L23.5,5.5 L25.5,5.5 L25.5,7.5 L23.5,7.5 L23.5,12.5 C23.5,13.2747093 24.0828025,13.5 25,13.5 L25.5,13.5 L25.5,15.5 L24.5,15.5 C22.6273885,15.5 21.5,14.6162791 21.5,12.5 L21.5,7.5 L20.5,7.5 L20.5,5.5 L21.5,5.5 L21.5,2.5 L23.5,2.5 Z M110,2.5 L110,5.5 L112,5.5 L112,7.5 L110,7.5 L110,12.5 C110,13.2747093 110.582803,13.5 111.5,13.5 L112,13.5 L112,15.5 L111,15.5 C109.127389,15.5 108,14.6162791 108,12.5 L108,7.5 L107,7.5 L107,5.5 L108,5.5 L108,2.5 L110,2.5 Z M90.36,7.3 C89.14,7.3 88,8.12 87.72,9.32 L92.74,9.32 C92.52,8.06 91.7,7.3 90.36,7.3 Z M46.36,7.3 C45.14,7.3 44,8.12 43.72,9.32 L48.74,9.32 C48.52,8.06 47.7,7.3 46.36,7.3 Z M17.5,3.5 C18.0588235,3.5 18.5,3.94615385 18.5,4.5 C18.5,5.05384615 18.0588235,5.5 17.5,5.5 C16.9411765,5.5 16.5,5.05384615 16.5,4.5 C16.5,3.94615385 16.9411765,3.5 17.5,3.5 Z M28.5,3.5 C29.0588235,3.5 29.5,3.94615385 29.5,4.5 C29.5,5.05384615 29.0588235,5.5 28.5,5.5 C27.9411765,5.5 27.5,5.05384615 27.5,4.5 C27.5,3.94615385 27.9411765,3.5 28.5,3.5 Z" id="Combined-Shape"></path>
        </g>
        <g id="Branding/Symbol/CN/Blue/32px" transform="translate(0.000000, 8.000000)">
            <g id="Group" transform="translate(0.000000, 5.000000)">
                <g id="N" transform="translate(16.000000, 0.000000)">
                    <polygon id="Rectangle" fill="url(#linearGradient-1)" points="11.5555556 7.11111111 16 7.11111111 16 16 11.5555556 12.4444444"></polygon>
                    <polygon id="Rectangle" fill="url(#linearGradient-2)" points="-1.57898386e-14 5.33333333 4.44444444 9.77777778 4.44444444 15.1111111 -1.57898386e-14 10.6666667"></polygon>
                    <polygon id="Rectangle" fill="#066BF9" points="0 0 16 15.1111111 16 21.3333333 0 6.22222222"></polygon>
                </g>
                <path d="M3.05018445,3.55555556 L6.11843306,6.62380417 C5.01910645,7.72313078 4.3391588,9.24183636 4.3391588,10.9193522 C4.3391588,14.2743839 7.05894939,16.9941745 10.4139811,16.9941745 C12.091497,16.9941745 13.6102026,16.3142269 14.7095292,15.2149003 L17.7777778,18.2831489 C15.8932179,20.1677088 13.2897226,21.3333333 10.4139811,21.3333333 C4.66249816,21.3333333 0,16.6708352 0,10.9193522 C0,8.04361074 1.16562454,5.44011546 3.05018445,3.55555556 Z" id="Path" fill="#066BF9"></path>
            </g>
        </g>
    </g>
</svg>