<svg width="64" height="64" xmlns="http://www.w3.org/2000/svg"><defs><linearGradient x1="37.5%" y1="42.081%" x2="62.5%" y2="0%" id="a"><stop stop-color="#3889FA" offset="0%"/><stop stop-color="#066BF9" offset="100%"/></linearGradient><linearGradient x1="39.669%" y1="96.067%" x2="60.331%" y2="50%" id="b"><stop stop-color="#066BF9" offset="0%"/><stop stop-color="#3889FA" offset="100%"/></linearGradient></defs><g fill="none" fill-rule="evenodd"><path fill="url(#a)" d="M23.111 14.222H32V32l-8.889-7.111z" transform="translate(32 11)"/><path fill="url(#b)" d="M0 10.667l8.889 8.889v10.666L0 21.333z" transform="translate(32 11)"/><path fill="#066BF9" d="M32 11l32 30.222v12.445L32 23.444zM6.1 18.111l6.137 6.137a12.112 12.112 0 00-3.559 8.59c0 6.71 5.44 12.15 12.15 12.15 3.355 0 6.392-1.36 8.591-3.558l6.137 6.136a20.763 20.763 0 01-14.728 6.1C9.325 53.667 0 44.343 0 32.84A20.763 20.763 0 016.1 18.11z"/></g></svg>